<?xml version="1.0" encoding="UTF-8"?>
<svg width="18px" height="18px" viewBox="0 0 18 18" version="1.1" xmlns="http://www.w3.org/2000/svg" xmlns:xlink="http://www.w3.org/1999/xlink">
    <title>Shape</title>
    <g id="Page-1" stroke="none" stroke-width="1" fill="none" fill-rule="evenodd">
        <g id="ic_edit_no_tail" transform="translate(0, -0)" fill="#000000">
            <path d="M15.7192,0.769480026 L17.2301,2.27948003 C18.2907,3.33948003 18.2507,5.09948003 17.14,6.20948003 L6.01352,17.3295 C5.58327,17.7495 5.01293,17.9895 4.41258,17.9895 L1.76104,17.9895 C0.790471,17.9895 0,17.1995 0,16.2295 L0,13.5795 C0,12.9895 0.240144,12.3995 0.660389,11.9795 L11.7869,0.859480026 C12.8975,-0.250519974 14.6586,-0.290519974 15.7192,0.769480026 Z M4.4226,16.5095 C4.62271,16.5095 4.8128,16.4295 4.96289,16.2795 L4.96289,16.2895 L13.2277,8.02948003 L9.99583,4.79948003 L1.73102,13.0595 C1.59094,13.1995 1.51089,13.3995 1.51089,13.5995 L1.51089,16.2495 C1.51089,16.3895 1.63094,16.5095 1.77102,16.5095 L4.4226,16.5095 Z M14.2883,6.95948003 L16.0894,5.15948003 L16.0994,5.16948003 C16.6197,4.63948003 16.6597,3.82948003 16.1894,3.35948003 L14.6686,1.83948003 C14.4484,1.61948003 14.1483,1.50948003 13.8481,1.50948003 C13.4979,1.50948003 13.1377,1.64948003 12.8575,1.92948003 L11.0564,3.72948003 L14.2883,6.95948003 Z" id="Shape"></path>
        </g>
    </g>
</svg>