<svg width="18" height="20" viewBox="0 0 18 20" fill="none" xmlns="http://www.w3.org/2000/svg">
<path fill-rule="evenodd" clip-rule="evenodd" d="M4.52992 3.75C4.52992 2.50421 5.53191 1.5 6.77493 1.5H14.2583C15.5013 1.5 16.5033 2.50421 16.5033 3.75V16.25C16.5033 17.4958 15.5013 18.5 14.2583 18.5H6.77493C5.53191 18.5 4.52992 17.4958 4.52992 16.25C4.52992 15.8358 4.19487 15.5 3.78158 15.5C3.36828 15.5 3.03324 15.8358 3.03324 16.25C3.03324 18.3242 4.70531 20 6.77493 20H14.2583C16.3279 20 18 18.3242 18 16.25V3.75C18 1.67579 16.3279 0 14.2583 0H6.77493C4.70531 0 3.03324 1.67579 3.03324 3.75C3.03324 4.16421 3.36828 4.5 3.78158 4.5C4.19487 4.5 4.52992 4.16421 4.52992 3.75ZM8.43997 5.82063C8.73169 5.52721 9.20551 5.52636 9.49828 5.81873L12.293 8.60968C12.9744 9.29257 12.9744 10.4074 12.293 11.0903L9.49828 13.8813C9.20551 14.1737 8.73169 14.1728 8.43997 13.8794C8.14825 13.586 8.14909 13.1111 8.44186 12.8187L10.6636 10.6H0.748338C0.335042 10.6 0 10.2642 0 9.85001C0 9.43579 0.335042 9.10001 0.748338 9.10001H10.6636L8.44186 6.88128C8.14909 6.58892 8.14825 6.11404 8.43997 5.82063Z" fill="black"/>
</svg>
