<svg width="16" height="20" viewBox="0 0 16 20" fill="none" xmlns="http://www.w3.org/2000/svg">
<path fill-rule="evenodd" clip-rule="evenodd" d="M1.5 3.75C1.5 2.50421 2.50421 1.5 3.75 1.5H9.5V3.63C9.5 5.21421 10.7858 6.5 12.37 6.5H14.5V16.25C14.5 17.4958 13.4958 18.5 12.25 18.5H3.75C2.50421 18.5 1.5 17.4958 1.5 16.25V3.75ZM14.1247 5C14.042 4.87473 13.9467 4.75735 13.8397 4.65033L11.3497 2.16033C11.2422 2.05282 11.1249 1.95716 11 1.8743V3.63C11 4.38579 11.6142 5 12.37 5H14.1247ZM3.75 0C1.67579 0 0 1.67579 0 3.75V16.25C0 18.3242 1.67579 20 3.75 20H12.25C14.3242 20 16 18.3242 16 16.25V6.24C16 5.25015 15.6003 4.28966 14.9003 3.58967L12.4103 1.09967C11.7113 0.400623 10.7612 0 9.76 0H3.75ZM11.34 9.5H4.67C4.3 9.5 4 9.84 4 10.25C4 10.66 4.3 11 4.67 11H11.34C11.71 11 12.01 10.66 12.01 10.25C12.01 9.84 11.71 9.5 11.34 9.5ZM7.67 13H11.34C11.71 13 12.01 13.34 12.01 13.75C12.01 14.16 11.71 14.5 11.34 14.5H7.67C7.3 14.5 7 14.16 7 13.75C7 13.34 7.3 13 7.67 13Z" fill="black"/>
</svg>
