<svg width="20" height="18" viewBox="0 0 20 18" fill="none" xmlns="http://www.w3.org/2000/svg">
<path fill-rule="evenodd" clip-rule="evenodd" d="M7.99806 13.2703C8.59231 13.6447 9.27424 13.8319 9.94643 13.8319V13.8418C10.6186 13.8418 11.3005 13.6447 11.8948 13.2703L18.9771 8.74749C19.6201 8.34349 20 7.6439 20 6.87532C20 6.10674 19.6201 5.40714 18.9771 5.00314L12.0019 0.569043C10.8134 -0.189681 9.28397 -0.189681 8.10521 0.569043L1.02291 5.09183C0.379949 5.49582 0 6.19542 0 6.964C0 7.73258 0.379949 8.43219 1.02291 8.83618L7.99806 13.2703ZM8.88454 1.80074C9.23525 1.57411 9.64442 1.45586 10.0536 1.45586C10.4627 1.45586 10.8719 1.56425 11.2226 1.79088L18.1978 6.22498C18.4121 6.36293 18.5387 6.58957 18.5387 6.84576C18.5387 7.11181 18.4121 7.33844 18.1978 7.47639L11.1154 11.9992C10.4043 12.4524 9.48855 12.4524 8.7774 11.9992L1.80224 7.56507C1.58792 7.42712 1.46127 7.20049 1.46127 6.94429C1.46127 6.6881 1.58792 6.46147 1.80224 6.32352L8.88454 1.80074ZM7.91039 17.4088C8.52413 17.8029 9.23529 18 9.93671 18L9.91723 17.9901C10.6284 17.9901 11.3395 17.7931 11.9533 17.3989L19.396 12.6397C19.737 12.4229 19.8344 11.9696 19.6201 11.6247C19.4058 11.2799 18.9576 11.1813 18.6167 11.3981L11.1739 16.1574C10.4238 16.6402 9.43987 16.6402 8.68 16.1574L1.34441 11.4966C1.00344 11.2799 0.555321 11.3882 0.341001 11.7331C0.12668 12.078 0.233831 12.5313 0.574795 12.7481L7.91039 17.4088Z" fill="black"/>
</svg>
