<svg width="18" height="18" viewBox="0 0 18 18" fill="none" xmlns="http://www.w3.org/2000/svg">
<path fill-rule="evenodd" clip-rule="evenodd" d="M15.7192 0.76948L17.2301 2.27948C18.2907 3.33948 18.2507 5.09948 17.14 6.20948L6.01352 17.3295C5.58327 17.7495 5.01293 17.9895 4.41258 17.9895H1.76104C0.790471 17.9895 0 17.1995 0 16.2295V13.5795C0 12.9895 0.240144 12.3995 0.660389 11.9795L11.7869 0.85948C12.8975 -0.25052 14.6586 -0.29052 15.7192 0.76948ZM4.4226 16.5095C4.62271 16.5095 4.8128 16.4295 4.96289 16.2795V16.2895L13.2277 8.02948L9.99583 4.79948L1.73102 13.0595C1.59094 13.1995 1.51089 13.3995 1.51089 13.5995V16.2495C1.51089 16.3895 1.63094 16.5095 1.77102 16.5095H4.4226ZM14.2883 6.95948L16.0894 5.15948L16.0994 5.16948C16.6197 4.63948 16.6597 3.82948 16.1894 3.35948L14.6686 1.83948C14.4484 1.61948 14.1483 1.50948 13.8481 1.50948C13.4979 1.50948 13.1377 1.64948 12.8575 1.92948L11.0564 3.72948L14.2883 6.95948ZM10.7563 16.4995H15.2689C15.6792 16.4995 16.0194 16.8395 16.0194 17.2495C16.0194 17.6595 15.6792 17.9995 15.2689 17.9995H10.7563C10.346 17.9995 10.0058 17.6595 10.0058 17.2495C10.0058 16.8395 10.346 16.4995 10.7563 16.4995Z" fill="black"/>
</svg>
